<svg width="32" height="32" viewBox="0 0 32 32" fill="none" xmlns="http://www.w3.org/2000/svg">
    <rect width="32" height="32" rx="16" fill="#D1D1D1"/>
    <path d="M18.3951 10.0181C17.7869 9.36156 16.9376 9 16.0001 9C15.0576 9 14.2054 9.35937 13.6001 10.0119C12.9882 10.6716 12.6901 11.5681 12.7601 12.5362C12.8988 14.4462 14.3522 16 16.0001 16C17.6479 16 19.0988 14.4466 19.2397 12.5369C19.3107 11.5775 19.0107 10.6828 18.3951 10.0181ZM21.5001 23H10.5001C10.3561 23.0019 10.2135 22.9716 10.0827 22.9115C9.95185 22.8513 9.83609 22.7627 9.74381 22.6522C9.54068 22.4094 9.45881 22.0778 9.51943 21.7425C9.78318 20.2794 10.6063 19.0503 11.9001 18.1875C13.0494 17.4216 14.5054 17 16.0001 17C17.4947 17 18.9507 17.4219 20.1001 18.1875C21.3938 19.05 22.2169 20.2791 22.4807 21.7422C22.5413 22.0775 22.4594 22.4091 22.2563 22.6519C22.1641 22.7625 22.0483 22.8511 21.9175 22.9113C21.7867 22.9715 21.6441 23.0018 21.5001 23Z" fill="#0069E8"/>
</svg>
