<svg width="101" height="32" viewBox="0 0 101 32" fill="none" xmlns="http://www.w3.org/2000/svg">
<path d="M31.6822 12.7913C31.8943 12.7951 32.1001 12.8644 32.2713 12.9895C32.4426 13.1147 32.571 13.2898 32.639 13.4907L34.8252 20.3878L37.017 13.4935C37.0834 13.2954 37.2088 13.1223 37.3762 12.9974C37.5437 12.8724 37.7453 12.8015 37.9541 12.7941H38.4856C38.6978 12.798 38.9037 12.8673 39.0752 12.9924C39.2466 13.1176 39.3753 13.2925 39.4437 13.4935L41.6132 20.3878L43.8329 13.4935C43.9009 13.2925 44.0293 13.1175 44.2006 12.9923C44.3718 12.8671 44.5776 12.7979 44.7897 12.7941H45.5352C45.9548 12.7941 46.194 13.0921 46.0667 13.4935L42.8105 23.1545C42.7425 23.3554 42.6141 23.5304 42.4428 23.6556C42.2716 23.7808 42.0658 23.85 41.8537 23.8538H41.3432C41.1344 23.8465 40.9328 23.7756 40.7653 23.6506C40.5979 23.5256 40.4725 23.3526 40.4061 23.1545L38.2366 16.5147L36.0658 23.1545C35.9976 23.3555 35.8689 23.5306 35.6974 23.6558C35.5259 23.781 35.32 23.8501 35.1077 23.8538H34.5972C34.3851 23.85 34.1793 23.7808 34.0081 23.6556C33.8368 23.5304 33.7084 23.3554 33.6404 23.1545L30.4052 13.4935C30.2779 13.0893 30.4905 12.7941 30.9157 12.7941L31.6822 12.7913Z" fill="white"/>
<path d="M46.9171 18.3233C46.9171 15.0027 49.2376 12.5144 52.2588 12.5144C52.9668 12.5103 53.6682 12.6514 54.3196 12.9287C54.9711 13.2061 55.5588 13.6139 56.0466 14.1271V13.5368C56.0418 13.4396 56.057 13.3423 56.0913 13.2512C56.1257 13.1601 56.1784 13.0769 56.2462 13.007C56.314 12.9371 56.3955 12.8819 56.4856 12.8448C56.5756 12.8077 56.6723 12.7895 56.7697 12.7913H57.5138C57.6124 12.7888 57.7105 12.8064 57.8021 12.843C57.8936 12.8796 57.9768 12.9344 58.0466 13.0041C58.1163 13.0739 58.1711 13.157 58.2077 13.2486C58.2443 13.3402 58.2618 13.4383 58.2593 13.5368V23.1125C58.2617 23.211 58.2439 23.3089 58.2073 23.4003C58.1706 23.4917 58.1157 23.5747 58.046 23.6443C57.9763 23.7139 57.8932 23.7686 57.8017 23.8051C57.7102 23.8416 57.6123 23.8591 57.5138 23.8566H56.7697C56.6724 23.8587 56.5757 23.8407 56.4856 23.8037C56.3956 23.7668 56.3141 23.7117 56.2463 23.6419C56.1785 23.5721 56.1257 23.489 56.0914 23.398C56.057 23.3069 56.0417 23.2097 56.0466 23.1125V22.5195C55.5591 23.0334 54.9716 23.442 54.3201 23.7201C53.6687 23.9982 52.9671 24.1399 52.2588 24.1364C49.232 24.1336 46.9171 21.6439 46.9171 18.3233ZM49.2152 18.3233C49.2152 20.3654 50.7048 21.9194 52.5987 21.9194C54.4926 21.9194 56.0032 20.3654 56.0032 18.3233C56.0032 16.2811 54.5136 14.7272 52.5987 14.7272C50.6839 14.7272 49.2152 16.2811 49.2152 18.3233Z" fill="white"/>
<path d="M61.1533 12.7913C61.3678 12.7971 61.5761 12.8643 61.7534 12.9851C61.9307 13.1058 62.0696 13.275 62.1534 13.4725L65.281 21.0046L68.4309 13.4725C68.5147 13.275 68.6536 13.1058 68.8309 12.9851C69.0082 12.8643 69.2165 12.7971 69.431 12.7913H70.2604C70.68 12.7913 70.8773 13.0893 70.7066 13.4725L66.6 23.1755C66.5161 23.3729 66.3772 23.5421 66.1999 23.6629C66.0226 23.7837 65.8143 23.8509 65.5999 23.8566H64.983C64.7686 23.8509 64.5603 23.7837 64.383 23.6629C64.2057 23.5421 64.0668 23.3729 63.9829 23.1755L59.8763 13.4725C59.7057 13.0893 59.8973 12.7913 60.3225 12.7913H61.1533Z" fill="white"/>
<path d="M73.6439 19.1331C73.9838 20.8354 75.4315 22.0705 77.303 22.0705C78.279 22.0818 79.2201 21.7073 79.9214 21.0284C80.0866 20.8839 80.2965 20.8009 80.5158 20.7934C80.5736 20.7897 80.6316 20.7973 80.6865 20.8158L81.7076 21.1347C82.1118 21.262 82.2405 21.6453 81.9873 21.9642C80.9243 23.3055 79.264 24.135 77.3058 24.135C73.9223 24.135 71.3696 21.6452 71.3696 18.3261C71.3696 15.0069 73.8593 12.5172 77.1365 12.5172C80.562 12.5172 82.9021 15.1552 82.8811 18.3918C82.8787 18.4926 82.8565 18.5919 82.8155 18.6841C82.7746 18.7762 82.7158 18.8593 82.6426 18.9286C82.5694 18.9979 82.4832 19.052 82.389 19.0879C82.2948 19.1237 82.1944 19.1405 82.0936 19.1373L73.6439 19.1331ZM77.0666 14.5789C75.4287 14.5789 74.0663 15.7286 73.6621 17.3666H80.5984C80.4161 16.5686 79.9665 15.8571 79.324 15.35C78.6816 14.8429 77.885 14.5708 77.0666 14.5789Z" fill="white"/>
<path d="M84.8365 8.64271C84.834 8.54425 84.8516 8.44631 84.8881 8.35482C84.9245 8.26334 84.9792 8.18022 85.0488 8.11051C85.1184 8.0408 85.2014 7.98594 85.2928 7.94928C85.3842 7.91261 85.4822 7.89489 85.5806 7.89719H86.3261C86.4231 7.89695 86.5191 7.91624 86.6084 7.95391C86.6977 7.99157 86.7785 8.04684 86.846 8.11642C86.9135 8.186 86.9663 8.26846 87.0012 8.35888C87.0361 8.4493 87.0525 8.54583 87.0493 8.64271V23.1125C87.0523 23.2093 87.0358 23.3057 87.0008 23.3959C86.9658 23.4862 86.913 23.5685 86.8455 23.6379C86.778 23.7073 86.6973 23.7625 86.608 23.8C86.5188 23.8376 86.423 23.8569 86.3261 23.8566H85.5806C85.4822 23.8591 85.3843 23.8416 85.2929 23.8051C85.2015 23.7686 85.1185 23.7138 85.0489 23.6442C84.9793 23.5746 84.9246 23.4916 84.8881 23.4002C84.8515 23.3088 84.834 23.2109 84.8365 23.1125V8.64271Z" fill="white"/>
<path d="M94.5814 12.5158C97.9006 12.5158 100.413 15.0041 100.413 18.3247C100.413 21.6453 97.895 24.1336 94.5814 24.1336C91.2678 24.1336 88.7725 21.6439 88.7725 18.3247C88.7725 15.0055 91.2622 12.5158 94.5814 12.5158ZM94.5814 21.9208C96.5816 21.9208 98.1132 20.3668 98.1132 18.3247C98.1132 16.2825 96.5746 14.7286 94.5814 14.7286C92.5882 14.7286 91.0706 16.2811 91.0706 18.3247C91.0706 20.3682 92.6022 21.9208 94.5814 21.9208Z" fill="white"/>
<path d="M24.2983 0C20.5414 0 18.2768 7.95174 15.8808 16.3651C15.0416 19.3024 14.1898 22.304 13.3016 24.7854C13.1797 24.6765 13.0653 24.5597 12.9589 24.4357C11.2077 22.4076 10.8258 17.947 11.8245 11.1772C11.9126 10.5813 12.0287 10.1463 11.921 9.85681C11.8921 9.75188 11.8374 9.65585 11.7619 9.57744C11.6865 9.49903 11.5926 9.44072 11.4888 9.40782C11.3409 9.37214 11.1855 9.38497 11.0455 9.44442C10.9054 9.50385 10.7882 9.60675 10.7111 9.73792C10.604 9.91279 10.5105 10.0956 10.4314 10.2848C10.3475 10.4904 10.2286 10.7618 10.0873 11.1115C9.51523 12.5102 8.55711 14.86 7.41155 16.898C7.21014 17.2575 7.01711 17.5792 6.83248 17.8687C6.51077 13.4208 5.84078 9.78267 3.13985 9.78267C2.095 9.78267 1.24178 10.2932 0.69628 11.2569C-0.562572 13.4459 0.0262912 17.4743 1.34249 19.722C2.12438 21.0564 3.11327 21.7613 4.20288 21.7613H4.22666C4.73112 21.7444 5.22007 21.5827 5.63517 21.2956C5.77505 23.7573 5.92331 26.261 6.35272 28.1717C6.56532 29.1172 7.21433 31.9986 9.56978 32C11.3546 32 12.7603 29.9551 14.0457 26.7912C14.6036 26.969 15.1862 27.0568 15.7717 27.0513C17.1481 27.0513 18.6041 26.1897 20.1078 24.4931C21.3666 23.0705 22.6339 21.0606 23.7864 18.6814C26.0719 13.9663 27.5476 8.57138 27.5476 4.9361C27.535 0.640616 25.5068 0 24.2983 0ZM4.21407 20.3626H4.20428C3.45177 20.3626 2.84472 19.5234 2.54959 19.0156C1.3299 16.9329 1.01099 13.5005 1.90198 11.9535C2.2041 11.4276 2.60134 11.1814 3.13985 11.1814C4.89245 11.1814 5.31207 15.5482 5.54006 19.5653C4.87287 20.2465 4.42947 20.3612 4.21407 20.3626ZM12.6624 26.4611C11.2552 29.8823 10.202 30.6013 9.56698 30.6013C7.53884 30.6013 7.2437 25.1532 7.00732 20.7752L6.96955 20.0647C7.59771 19.2898 8.15391 18.4592 8.63124 17.5834C9.12079 16.7134 9.57258 15.7958 9.97821 14.9174C9.71245 18.4142 9.82435 22.9489 11.9001 25.3533C12.1616 25.6552 12.4584 25.9248 12.784 26.1561C12.7435 26.2624 12.7029 26.3631 12.6624 26.4611ZM22.5164 18.0687C20.2504 22.7446 17.6642 25.6498 15.7661 25.6498C15.3516 25.6542 14.9387 25.5972 14.5408 25.4805C15.4528 22.9768 16.3144 19.9486 17.2264 16.7483C19.1734 9.91136 21.5974 1.39872 24.2983 1.39872C25.518 1.39872 26.1363 2.58904 26.1363 4.9361C26.1363 8.37556 24.7152 13.5313 22.5164 18.0715V18.0687Z" fill="white"/>
</svg>
